# xmcd
#
# Track frame offsets: 
#        151
#        16046
#        34998
#        52812
#        71497
#        92771
#        110683
#        130883
#        153789
#        175753
#
# Disc length: 2594 seconds
#
# Revision: 0
# Processed by: cddbd v1.5.2PL0 Copyright (c) Steve Scherf et al.
# Submitted via: ExactAudioCopy v0.95b3
#
DISCID=750a200a
DTITLE=James Rasmussen - Bim Bam Boo Bubba Lou
DYEAR=1997
DGENRE=Country
TTITLE0=Bim Bam Boo Bubba Lou
TTITLE1=Get Down
TTITLE2=Roserita
TTITLE3=A Woman Like That
TTITLE4=Hot Time Hot Girl
TTITLE5=Jr. Shanklin
TTITLE6=Hungry For Gold
TTITLE7=Thousand Miles
TTITLE8=Te Ki Tay
TTITLE9=Southbound Highway
EXTD=
EXTT0=
EXTT1=
EXTT2=
EXTT3=
EXTT4=
EXTT5=
EXTT6=
EXTT7=
EXTT8=
EXTT9=
PLAYORDER=
